<svg version="1.1" id="Logo" xmlns="http://www.w3.org/2000/svg" xmlns:xlink="http://www.w3.org/1999/xlink" x="0px" y="0px" width="260px" height="62.086px" viewBox="0 0 260 62.086" enable-background="new 0 0 260 62.086" xml:space="preserve">
<g id="soft">
  <path fill="#575756" d="M201.48,31.518L201.48,31.518c-0.724-0.382-1.806-0.871-3.506-1.571l-2.547-1.065
    c-1.482-0.643-2.23-1.628-2.23-2.946c0-1.741,1.466-2.962,3.564-2.962c2.133,0,3.979,0.879,5.477,2.62l2.66-2.824
    c-1.854-2.393-4.517-3.604-7.908-3.604c-2.482,0-4.518,0.667-6.063,1.985c-1.482,1.303-2.238,2.979-2.238,4.972
    c0,2.645,1.261,4.598,3.863,5.966c0.579,0.341,1.768,0.845,3.135,1.433c1.685,0.643,2.629,1.031,3.035,1.26
    c1.489,0.717,2.245,1.759,2.245,3.076c0,1.896-1.87,3.338-4.354,3.338c-2.482,0-4.93-1.4-6.444-3.68l-2.953,2.66
    c1.944,3.117,5.411,4.973,9.302,4.973c2.692,0,4.906-0.731,6.575-2.172c1.668-1.449,2.515-3.248,2.515-5.347
    C205.624,34.977,204.273,32.982,201.48,31.518z"></path>
  <path fill="#575756" d="M219.718,19.353c-3.735,0-6.877,1.269-9.342,3.775c-2.448,2.548-3.646,5.526-3.646,9.114
    c0,3.598,1.229,6.697,3.646,9.203c2.465,2.516,5.517,3.736,9.342,3.736c3.784,0,6.908-1.254,9.294-3.736
    c2.481-2.53,3.694-5.541,3.694-9.203c0-3.604-1.205-6.583-3.687-9.114C226.594,20.622,223.469,19.353,219.718,19.353z
     M225.577,38.338c-1.579,1.676-3.558,2.521-5.867,2.521c-2.295,0-4.28-0.846-5.908-2.521c-1.577-1.677-2.385-3.729-2.385-6.096
    c0-2.335,0.798-4.37,2.376-6.046c1.611-1.709,3.605-2.572,5.917-2.572c2.327,0,4.306,0.871,5.867,2.58
    c1.603,1.652,2.425,3.686,2.425,6.038C228.01,34.627,227.188,36.678,225.577,38.338z"></path>
  <path fill="#575756" d="M241.648,18.425c0-2.637,1.285-4.378,3.611-4.931V9.107c-5.175,0.431-8.258,3.865-8.258,9.229v1.668h-4.175
    v3.906h4.175v20.629h4.646V23.901h3.662v-3.906h-3.662V18.425z"></path>
  <path fill="#575756" d="M257.898,23.901v-3.906h-4.084V9.091h-4.388v29.671c0.798,4.23,3.396,6.371,7.716,6.371
    c0.252,0,0.504-0.008,0.756-0.017v-4.207h-0.008c-2.701,0-4.076-1.685-4.076-5.005V23.901H257.898z"></path>
</g>
<g id="premier">
  <path fill="#0055E7" d="M19.095,19.035c-3.418,0-6.177,1.091-8.023,3.328v-3.254l-7.08,3.368v31.712h7.413V42.27
    c1.896,2.09,4.517,3.082,7.699,3.082c7.169,0,12.727-5.127,12.727-13.156C31.821,24.17,26.264,19.035,19.095,19.035z
     M17.809,39.273c-3.703,0-6.51-2.66-6.51-7.08c0-4.418,2.8-7.083,6.51-7.083s6.51,2.662,6.51,7.083
    C24.319,36.613,21.512,39.273,17.809,39.273z"></path>
  <path fill="#0055E7" d="M41.92,22.786v-3.8l-7.08,3.369v22.989h7.414V32.91c0-4.892,2.71-7.129,6.795-7.129
    c0.57,0,1.042,0.048,1.66,0.098v-6.844C46.771,19.035,43.727,20.321,41.92,22.786z"></path>
  <path fill="#0055E7" d="M66.365,19.035c-7.788,0-13.63,5.509-13.63,13.158c0,7.601,5.745,13.158,14.582,13.158
    c4.606,0,8.171-1.424,10.547-4.133l-3.938-4.273c-1.758,1.66-3.703,2.475-6.413,2.475c-3.898,0-6.599-1.945-7.315-5.126h19.334
    c0.049-0.619,0.146-1.425,0.146-1.995C79.671,24.072,73.868,19.035,66.365,19.035z M60.1,29.964
    c0.521-3.279,2.946-5.322,6.315-5.322c3.328,0,5.745,2.092,6.274,5.322H60.1z"></path>
  <path fill="#0055E7" d="M115.419,19.035c-3.849,0-7.169,1.571-9.212,4.183c-1.807-2.799-4.842-4.183-8.406-4.183
    c-3.279,0-6.127,1.139-8.023,3.328v-3.312h-0.024l-7.056,3.36V45.35h7.414V32.146c0-4.562,2.327-6.702,5.606-6.702
    c3.084,0,4.842,1.896,4.842,6.03v13.869h7.414V32.146c0-4.562,2.328-6.702,5.656-6.702c2.994,0,4.841,1.896,4.841,6.03v13.869
    h7.414V30.338C125.867,22.551,121.498,19.035,115.419,19.035z"></path>
  <path fill="#0055E7" d="M136.542,18.802l-7.412,3.369v22.923h7.412V18.802z"></path>
  <path fill="#0055E7" d="M153.096,19.035c-7.787,0-13.631,5.509-13.631,13.158c0,7.601,5.746,13.158,14.583,13.158
    c4.604,0,8.17-1.424,10.548-4.133l-3.938-4.273c-1.76,1.66-3.703,2.475-6.412,2.475c-3.896,0-6.602-1.945-7.313-5.126h19.334
    c0.049-0.619,0.146-1.425,0.146-1.995C166.4,24.072,160.605,19.035,153.096,19.035z M146.83,29.964
    c0.521-3.279,2.945-5.322,6.314-5.322c3.328,0,5.744,2.092,6.271,5.322H146.83z"></path>
  <path fill="#0055E7" d="M176.5,22.786v-3.734l-7.08,3.369v22.923h7.412V32.91c0-4.892,2.711-7.129,6.796-7.129
    c0.569,0,1.235,0.048,1.854,0.098v-6.844C181.537,19.035,178.307,20.321,176.5,22.786z"></path>
</g>
</svg>